<svg width="32" height="32" viewBox="0 0 32 32" fill="none" xmlns="http://www.w3.org/2000/svg">
<rect width="32" height="32" fill="white"/>
<path d="M29.6497 18.988C29.5667 18.755 29.4677 18.527 29.3557 18.307L24.1567 6.479C24.1077 6.365 24.0377 6.26201 23.9497 6.17401C23.5787 5.80201 23.1377 5.50801 22.6517 5.30701C22.1667 5.10601 21.6467 5.00198 21.1207 5.00198C20.5957 5.00198 20.0757 5.10601 19.5897 5.30701C19.1047 5.50801 18.6637 5.80201 18.2917 6.17401C18.1057 6.36101 17.9997 6.615 17.9997 6.879V10.004H13.9997V6.879C13.9997 6.748 13.9737 6.618 13.9237 6.496C13.8737 6.375 13.7997 6.264 13.7077 6.172C13.3357 5.8 12.8947 5.50499 12.4097 5.30399C11.9237 5.10299 11.4037 5 10.8787 5C10.3527 5 9.8327 5.10299 9.3477 5.30399C8.8617 5.50499 8.4207 5.8 8.0497 6.172C7.9617 6.259 7.8917 6.36299 7.8427 6.47699L2.64372 18.304C2.53172 18.525 2.43272 18.752 2.34972 18.985C2.05572 19.809 1.94471 20.687 2.02571 21.558C2.10571 22.429 2.3757 23.272 2.8167 24.027C3.2577 24.783 3.85771 25.433 4.57671 25.932C5.29471 26.431 6.11373 26.767 6.97573 26.916C7.83673 27.066 8.72072 27.025 9.56572 26.797C10.4097 26.568 11.1947 26.158 11.8637 25.595C12.5327 25.032 13.0707 24.329 13.4397 23.536C13.8087 22.743 13.9997 21.879 13.9997 21.004V12.004H17.9997V21.004C17.9997 21.879 18.1897 22.743 18.5587 23.536C18.9277 24.33 19.4657 25.033 20.1347 25.596C20.8037 26.16 21.5877 26.57 22.4327 26.799C23.2767 27.027 24.1607 27.068 25.0227 26.919C25.8847 26.77 26.7037 26.434 27.4227 25.935C28.1407 25.436 28.7417 24.786 29.1827 24.03C29.6227 23.275 29.8937 22.432 29.9737 21.561C30.0547 20.69 29.9437 19.812 29.6497 18.988ZM9.5887 7.47299C9.9217 7.19199 10.3377 7.028 10.7727 7.005C11.2087 6.983 11.6387 7.10299 11.9997 7.34799V16.537C11.2187 15.835 10.2677 15.352 9.24071 15.134C8.21471 14.917 7.14871 14.973 6.15071 15.297L9.5887 7.47299ZM7.99971 25.004C7.20871 25.004 6.43573 24.769 5.77773 24.33C5.11973 23.89 4.6067 23.266 4.3037 22.535C4.0017 21.804 3.92271 21 4.07671 20.224C4.23071 19.448 4.61171 18.735 5.17171 18.176C5.73071 17.616 6.44371 17.235 7.21971 17.081C7.99571 16.927 8.79972 17.006 9.53072 17.308C10.2617 17.611 10.8857 18.124 11.3257 18.782C11.7647 19.44 11.9997 20.213 11.9997 21.004C11.9997 22.065 11.5787 23.082 10.8277 23.832C10.0777 24.583 9.06071 25.004 7.99971 25.004ZM19.9997 7.34698C20.3607 7.10198 20.7907 6.982 21.2267 7.004C21.6617 7.027 22.0777 7.19098 22.4107 7.47198L25.8487 15.294C24.8507 14.97 23.7847 14.914 22.7577 15.132C21.7317 15.35 20.7807 15.834 19.9997 16.535V7.34698ZM23.9997 25.004C23.2087 25.004 22.4357 24.769 21.7777 24.33C21.1197 23.89 20.6067 23.266 20.3037 22.535C20.0017 21.804 19.9227 21 20.0767 20.224C20.2307 19.448 20.6117 18.735 21.1717 18.176C21.7307 17.616 22.4437 17.235 23.2197 17.081C23.9957 16.927 24.7997 17.006 25.5307 17.308C26.2617 17.611 26.8857 18.124 27.3257 18.782C27.7647 19.44 27.9997 20.213 27.9997 21.004C27.9997 22.065 27.5787 23.082 26.8277 23.832C26.0777 24.583 25.0607 25.004 23.9997 25.004Z" fill="black"/>
</svg>
