<svg width="32" height="32" viewBox="0 0 32 32" fill="none" xmlns="http://www.w3.org/2000/svg">
<rect width="32" height="32" fill="white"/>
<path d="M11 12C11 11.735 11.105 11.48 11.293 11.293C11.48 11.105 11.735 11 12 11H20C20.265 11 20.52 11.105 20.707 11.293C20.895 11.48 21 11.735 21 12C21 12.265 20.895 12.52 20.707 12.707C20.52 12.895 20.265 13 20 13H12C11.735 13 11.48 12.895 11.293 12.707C11.105 12.52 11 12.265 11 12ZM12 17H20C20.265 17 20.52 16.895 20.707 16.707C20.895 16.52 21 16.265 21 16C21 15.735 20.895 15.48 20.707 15.293C20.52 15.105 20.265 15 20 15H12C11.735 15 11.48 15.105 11.293 15.293C11.105 15.48 11 15.735 11 16C11 16.265 11.105 16.52 11.293 16.707C11.48 16.895 11.735 17 12 17ZM29 6V22C29 22.53 28.789 23.039 28.414 23.414C28.039 23.789 27.53 24 27 24H19.566L17.711 27.036C17.533 27.331 17.281 27.575 16.98 27.744C16.68 27.913 16.341 28.001 15.996 28C15.651 28 15.313 27.91 15.013 27.74C14.713 27.569 14.462 27.324 14.285 27.029L12.434 24H5C4.47 24 3.961 23.789 3.586 23.414C3.211 23.039 3 22.53 3 22V6C3 5.47 3.211 4.961 3.586 4.586C3.961 4.211 4.47 4 5 4H27C27.53 4 28.039 4.211 28.414 4.586C28.789 4.961 29 5.47 29 6ZM27 6H5V22H12.434C12.778 22.001 13.116 22.09 13.416 22.259C13.716 22.429 13.967 22.672 14.146 22.966L16 26L17.853 22.96C18.032 22.667 18.284 22.424 18.584 22.256C18.884 22.088 19.222 22 19.566 22H27V6Z" fill="black"/>
</svg>
