<svg width="32" height="32" viewBox="0 0 32 32" fill="none" xmlns="http://www.w3.org/2000/svg">
<rect width="32" height="32" fill="white"/>
<path d="M29.978 18.625L28.478 6.625C28.386 5.9 28.033 5.233 27.485 4.75C26.937 4.266 26.231 4 25.5 4H4C3.47 4 2.961 4.211 2.586 4.586C2.211 4.961 2 5.47 2 6V17C2 17.53 2.211 18.039 2.586 18.414C2.961 18.789 3.47 19 4 19H9.38202L14.105 28.448C14.188 28.614 14.316 28.753 14.474 28.851C14.632 28.949 14.814 29 15 29C16.326 29 17.598 28.473 18.536 27.536C19.473 26.598 20 25.326 20 24V22H27C27.426 22 27.847 21.91 28.235 21.735C28.623 21.56 28.969 21.304 29.251 20.985C29.532 20.665 29.743 20.29 29.868 19.883C29.993 19.476 30.031 19.047 29.978 18.625ZM9 17H4V6H9V17ZM27.75 19.661C27.657 19.768 27.542 19.854 27.412 19.913C27.283 19.971 27.142 20.001 27 20H19C18.735 20 18.48 20.105 18.293 20.293C18.105 20.48 18 20.735 18 21V24C18 24.694 17.76 25.366 17.32 25.902C16.881 26.439 16.269 26.806 15.589 26.942L11 17.764V6H25.5C25.744 6 25.979 6.089 26.162 6.25C26.344 6.411 26.462 6.633 26.493 6.875L27.993 18.875C28.011 19.016 27.999 19.159 27.957 19.295C27.916 19.43 27.845 19.555 27.75 19.661Z" fill="black"/>
</svg>
