<svg width="32" height="32" viewBox="0 0 32 32" fill="none" xmlns="http://www.w3.org/2000/svg">
<rect width="32" height="32" fill="white"/>
<path d="M28 19V26C28 26.53 27.789 27.039 27.414 27.414C27.039 27.789 26.53 28 26 28H6C5.47 28 4.961 27.789 4.586 27.414C4.211 27.039 4 26.53 4 26V19C4 18.735 4.105 18.48 4.293 18.293C4.48 18.105 4.735 18 5 18C5.265 18 5.52 18.105 5.707 18.293C5.895 18.48 6 18.735 6 19V26H26V19C26 18.735 26.105 18.48 26.293 18.293C26.48 18.105 26.735 18 27 18C27.265 18 27.52 18.105 27.707 18.293C27.895 18.48 28 18.735 28 19ZM15.292 19.708C15.385 19.8 15.496 19.874 15.617 19.925C15.738 19.975 15.869 20.001 16 20.001C16.131 20.001 16.262 19.975 16.383 19.925C16.504 19.874 16.615 19.8 16.708 19.708L21.708 14.708C21.8 14.615 21.874 14.504 21.924 14.383C21.975 14.262 22.001 14.131 22.001 14C22.001 13.869 21.975 13.738 21.924 13.617C21.874 13.496 21.8 13.385 21.708 13.292C21.615 13.2 21.504 13.126 21.383 13.076C21.262 13.025 21.131 12.999 21 12.999C20.869 12.999 20.738 13.025 20.617 13.076C20.496 13.126 20.385 13.2 20.292 13.292L17 16.586V5C17 4.735 16.895 4.48 16.707 4.293C16.52 4.105 16.265 4 16 4C15.735 4 15.48 4.105 15.293 4.293C15.105 4.48 15 4.735 15 5V16.586L11.708 13.292C11.52 13.105 11.265 12.999 11 12.999C10.735 12.999 10.48 13.105 10.292 13.292C10.105 13.48 9.99899 13.735 9.99899 14C9.99899 14.265 10.105 14.52 10.292 14.708L15.292 19.708Z" fill="black"/>
</svg>
