<svg width="32" height="32" viewBox="0 0 32 32" fill="none" xmlns="http://www.w3.org/2000/svg">
<rect width="32" height="32" fill="white"/>
<path d="M28.8209 5.19102C28.6669 4.83602 28.4118 4.53303 28.0878 4.32103C27.7628 4.11003 27.3828 3.99803 26.9958 4.00003H4.99584C4.60884 4.00103 4.22982 4.11403 3.90582 4.32603C3.58182 4.53703 3.32586 4.83803 3.16986 5.19203C3.01386 5.54703 2.96387 5.93803 3.02587 6.32103C3.08787 6.70303 3.25883 7.05903 3.51983 7.34503L3.52984 7.35603L11.9958 16.396V26C11.9958 26.362 12.0938 26.717 12.2798 27.028C12.4658 27.338 12.7329 27.593 13.0519 27.764C13.3709 27.934 13.7299 28.016 14.0919 27.998C14.4529 27.981 14.8029 27.866 15.1049 27.665L19.1049 24.998C19.3789 24.815 19.6038 24.567 19.7588 24.277C19.9148 23.986 19.9958 23.662 19.9958 23.333V16.396L28.4628 7.35603L28.4728 7.34503C28.7368 7.06003 28.9099 6.70303 28.9719 6.32003C29.0329 5.93703 28.9809 5.54502 28.8209 5.19102ZM18.5378 15.035C18.1908 15.403 17.9968 15.89 17.9958 16.396V23.333L13.9958 26V16.396C13.9968 15.888 13.8039 15.399 13.4559 15.029L4.99584 6.00003H26.9958L18.5378 15.035Z" fill="black"/>
</svg>
