<svg width="32" height="32" viewBox="0 0 32 32" fill="none" xmlns="http://www.w3.org/2000/svg">
<rect width="32" height="32" fill="white"/>
<path d="M16 14C16.265 14 16.52 14.105 16.707 14.293C16.895 14.48 17 14.735 17 15V17H19C19.265 17 19.52 17.105 19.707 17.293C19.895 17.48 20 17.735 20 18C20 18.265 19.895 18.52 19.707 18.707C19.52 18.895 19.265 19 19 19H17V21C17 21.265 16.895 21.52 16.707 21.707C16.52 21.895 16.265 22 16 22C15.735 22 15.48 21.895 15.293 21.707C15.105 21.52 15 21.265 15 21V19H13C12.735 19 12.48 18.895 12.293 18.707C12.105 18.52 12 18.265 12 18C12 17.735 12.105 17.48 12.293 17.293C12.48 17.105 12.735 17 13 17H15V15C15 14.735 15.105 14.48 15.293 14.293C15.48 14.105 15.735 14 16 14ZM29 10V24C29 24.53 28.789 25.039 28.414 25.414C28.039 25.789 27.53 26 27 26H5C4.47 26 3.961 25.789 3.586 25.414C3.211 25.039 3 24.53 3 24V7C3 6.47 3.211 5.961 3.586 5.586C3.961 5.211 4.47 5 5 5H11.666C12.099 5.001 12.52 5.14099 12.866 5.39999L16.334 8H27C27.53 8 28.039 8.211 28.414 8.586C28.789 8.961 29 9.47 29 10ZM5 11H11.666L14.334 9L11.666 7H5V11ZM27 10H16.334L12.866 12.6C12.52 12.859 12.099 12.999 11.666 13H5V24H27V10Z" fill="black"/>
</svg>
