<svg width="32" height="32" viewBox="0 0 32 32" fill="none" xmlns="http://www.w3.org/2000/svg">
<rect width="32" height="32" fill="white"/>
<path d="M15.9999 3C13.4289 3 10.9149 3.76201 8.77793 5.19101C6.63993 6.61901 4.97393 8.64999 3.98993 11.025C3.00593 13.401 2.74793 16.014 3.24993 18.536C3.75093 21.058 4.98992 23.374 6.80792 25.192C8.62592 27.01 10.9419 28.249 13.4639 28.75C15.9859 29.252 18.5989 28.994 20.9749 28.01C23.3499 27.026 25.3809 25.36 26.8089 23.222C28.2379 21.085 28.9999 18.571 28.9999 16C28.9959 12.553 27.6259 9.24901 25.1879 6.81201C22.7509 4.37401 19.4469 3.004 15.9999 3ZM15.9999 27C13.8239 27 11.6979 26.355 9.88893 25.146C8.07993 23.937 6.66993 22.22 5.83693 20.21C5.00493 18.2 4.78692 15.988 5.21092 13.854C5.63592 11.72 6.68293 9.75998 8.22193 8.22198C9.75993 6.68298 11.7199 5.636 13.8539 5.211C15.9879 4.787 18.1999 5.00501 20.2099 5.83701C22.2199 6.67001 23.9369 8.08001 25.1459 9.88901C26.3549 11.698 26.9999 13.824 26.9999 16C26.9969 18.916 25.8369 21.712 23.7749 23.775C21.7119 25.837 18.9159 26.997 15.9999 27ZM17.9999 22C17.9999 22.265 17.8949 22.52 17.7069 22.707C17.5199 22.895 17.2649 23 16.9999 23C16.4699 23 15.9609 22.789 15.5859 22.414C15.2109 22.039 14.9999 21.53 14.9999 21V16C14.7349 16 14.4799 15.895 14.2929 15.707C14.1049 15.52 13.9999 15.265 13.9999 15C13.9999 14.735 14.1049 14.48 14.2929 14.293C14.4799 14.105 14.7349 14 14.9999 14C15.5299 14 16.0389 14.211 16.4139 14.586C16.7889 14.961 16.9999 15.47 16.9999 16V21C17.2649 21 17.5199 21.105 17.7069 21.293C17.8949 21.48 17.9999 21.735 17.9999 22ZM13.9999 10.5C13.9999 10.203 14.0879 9.91299 14.2529 9.66699C14.4179 9.41999 14.6519 9.22801 14.9259 9.11401C15.1999 9.00101 15.5019 8.97099 15.7929 9.02899C16.0839 9.08699 16.3509 9.23 16.5609 9.439C16.7699 9.649 16.9129 9.916 16.9709 10.207C17.0289 10.498 16.9989 10.8 16.8859 11.074C16.7719 11.348 16.5799 11.582 16.3329 11.747C16.0869 11.912 15.7969 12 15.4999 12C15.1019 12 14.7209 11.842 14.4389 11.561C14.1579 11.279 13.9999 10.898 13.9999 10.5Z" fill="black"/>
</svg>
