<svg width="32" height="32" viewBox="0 0 32 32" fill="none" xmlns="http://www.w3.org/2000/svg">
<rect width="32" height="32" fill="white"/>
<path d="M16.2667 11.6664C15.4229 11.6664 14.5984 11.917 13.8965 12.3853C13.1947 12.8546 12.6475 13.5202 12.3243 14.2999C12.0021 15.0797 11.9179 15.9373 12.0821 16.765C12.2464 17.5928 12.6528 18.3533 13.2501 18.9496C13.8464 19.5469 14.6069 19.9533 15.4347 20.1176C16.2624 20.2818 17.12 20.1976 17.8997 19.8754C18.6795 19.5522 19.3451 19.005 19.8144 18.3032C20.2827 17.6013 20.5333 16.7768 20.5333 15.933C20.5333 14.8013 20.0843 13.7165 19.2832 12.9165C18.4832 12.1154 17.3984 11.6664 16.2667 11.6664ZM16.2667 18.0664C15.8443 18.0664 15.4325 17.9415 15.0816 17.7069C14.7307 17.4722 14.4576 17.1394 14.2955 16.749C14.1344 16.3597 14.0917 15.9309 14.1739 15.517C14.2571 15.1032 14.4597 14.7224 14.7584 14.4248C15.056 14.1261 15.4368 13.9234 15.8507 13.8402C16.2645 13.7581 16.6933 13.8007 17.0827 13.9618C17.4731 14.1239 17.8059 14.397 18.0405 14.748C18.2752 15.0989 18.4 15.5106 18.4 15.933C18.4 16.4984 18.1749 17.0413 17.7749 17.4413C17.3749 17.8413 16.832 18.0664 16.2667 18.0664ZM16.2667 9.53302C17.1104 9.53302 17.9349 9.28236 18.6368 8.81409C19.3387 8.34476 19.8859 7.67916 20.2091 6.89943C20.5312 6.11969 20.6155 5.26209 20.4512 4.43435C20.2869 3.60662 19.8805 2.84608 19.2832 2.24982C18.6869 1.65248 17.9264 1.24608 17.0987 1.08182C16.2709 0.917549 15.4133 1.00182 14.6336 1.32395C13.8539 1.64715 13.1883 2.19435 12.7189 2.89622C12.2507 3.59809 12 4.42262 12 5.26635C12 6.39809 12.4491 7.48289 13.2501 8.28289C14.0501 9.08396 15.1349 9.53302 16.2667 9.53302ZM16.2667 3.13302C16.6891 3.13302 17.1008 3.25783 17.4517 3.49249C17.8027 3.72716 18.0757 4.05995 18.2379 4.45035C18.3989 4.83969 18.4416 5.26849 18.3595 5.68235C18.2763 6.09622 18.0736 6.47702 17.7749 6.77462C17.4773 7.07329 17.0965 7.27596 16.6827 7.35916C16.2688 7.44129 15.84 7.39863 15.4507 7.23756C15.0603 7.07543 14.7275 6.80235 14.4928 6.45141C14.2581 6.10048 14.1333 5.68875 14.1333 5.26635C14.1333 4.70102 14.3584 4.15809 14.7584 3.75809C15.1584 3.35809 15.7013 3.13302 16.2667 3.13302ZM16.2667 22.333C15.4229 22.333 14.5984 22.5837 13.8965 23.0519C13.1947 23.5213 12.6475 24.1869 12.3243 24.9666C12.0021 25.7463 11.9179 26.604 12.0821 27.4317C12.2464 28.2594 12.6528 29.02 13.2501 29.6162C13.8464 30.2136 14.6069 30.62 15.4347 30.7842C16.2624 30.9485 17.12 30.8642 17.8997 30.5421C18.6795 30.2189 19.3451 29.6717 19.8144 28.9698C20.2827 28.268 20.5333 27.4434 20.5333 26.5997C20.5333 25.468 20.0843 24.3831 19.2832 23.5831C18.4832 22.7821 17.3984 22.333 16.2667 22.333ZM16.2667 28.733C15.8443 28.733 15.4325 28.6082 15.0816 28.3735C14.7307 28.1389 14.4576 27.8061 14.2955 27.4157C14.1344 27.0264 14.0917 26.5976 14.1739 26.1837C14.2571 25.7698 14.4597 25.389 14.7584 25.0914C15.056 24.7928 15.4368 24.5901 15.8507 24.5069C16.2645 24.4247 16.6933 24.4674 17.0827 24.6285C17.4731 24.7906 17.8059 25.0637 18.0405 25.4146C18.2752 25.7656 18.4 26.1773 18.4 26.5997C18.4 27.165 18.1749 27.708 17.7749 28.108C17.3749 28.508 16.832 28.733 16.2667 28.733Z" fill="black"/>
</svg>
