<svg width="32" height="32" viewBox="0 0 32 32" fill="none" xmlns="http://www.w3.org/2000/svg">
<rect width="32" height="32" fill="white"/>
<path d="M16.5 3C13.186 3.004 10.009 4.32201 7.66501 6.66501C5.32201 9.00901 4.004 12.186 4 15.5V26.041C4.001 26.561 4.20701 27.058 4.57401 27.426C4.94201 27.793 5.43901 27.999 5.95901 28H16.5C19.815 28 22.995 26.683 25.339 24.339C27.683 21.995 29 18.815 29 15.5C29 12.185 27.683 9.00501 25.339 6.66101C22.995 4.31701 19.815 3 16.5 3ZM16.5 26H6V15.5C6 13.423 6.61599 11.393 7.76999 9.66699C8.92299 7.93999 10.563 6.59401 12.482 5.79901C14.4 5.00501 16.512 4.797 18.548 5.202C20.585 5.607 22.456 6.60701 23.925 8.07501C25.393 9.54401 26.393 11.415 26.798 13.452C27.203 15.488 26.995 17.6 26.201 19.518C25.406 21.437 24.06 23.077 22.333 24.23C20.607 25.384 18.577 26 16.5 26ZM18 16C18 16.297 17.912 16.587 17.747 16.833C17.582 17.08 17.348 17.272 17.074 17.386C16.8 17.499 16.498 17.529 16.207 17.471C15.916 17.413 15.649 17.27 15.439 17.061C15.23 16.851 15.087 16.584 15.029 16.293C14.971 16.002 15.001 15.7 15.114 15.426C15.228 15.152 15.42 14.918 15.667 14.753C15.913 14.588 16.203 14.5 16.5 14.5C16.898 14.5 17.279 14.658 17.561 14.939C17.842 15.221 18 15.602 18 16ZM12.5 16C12.5 16.297 12.412 16.587 12.247 16.833C12.082 17.08 11.848 17.272 11.574 17.386C11.3 17.499 10.998 17.529 10.707 17.471C10.416 17.413 10.149 17.27 9.939 17.061C9.73 16.851 9.58699 16.584 9.52899 16.293C9.47099 16.002 9.50101 15.7 9.61401 15.426C9.72801 15.152 9.91999 14.918 10.167 14.753C10.413 14.588 10.703 14.5 11 14.5C11.398 14.5 11.779 14.658 12.061 14.939C12.342 15.221 12.5 15.602 12.5 16ZM23.5 16C23.5 16.297 23.412 16.587 23.247 16.833C23.082 17.08 22.848 17.272 22.574 17.386C22.3 17.499 21.998 17.529 21.707 17.471C21.416 17.413 21.149 17.27 20.939 17.061C20.73 16.851 20.587 16.584 20.529 16.293C20.471 16.002 20.501 15.7 20.614 15.426C20.728 15.152 20.92 14.918 21.167 14.753C21.413 14.588 21.703 14.5 22 14.5C22.398 14.5 22.779 14.658 23.061 14.939C23.342 15.221 23.5 15.602 23.5 16Z" fill="black"/>
</svg>
