<svg width="32" height="32" viewBox="0 0 32 32" fill="none" xmlns="http://www.w3.org/2000/svg">
<rect width="32" height="32" fill="white"/>
<path d="M27.796 20.8067L21.908 18.1687L21.891 18.1607C21.586 18.0297 21.252 17.9777 20.921 18.0087C20.59 18.0387 20.272 18.1517 19.995 18.3357C19.962 18.3577 19.931 18.3807 19.901 18.4057L16.859 20.9997C14.931 20.0637 12.941 18.0887 12.005 16.1857L14.603 13.0967C14.628 13.0657 14.651 13.0347 14.674 13.0007C14.854 12.7247 14.964 12.4087 14.993 12.0807C15.021 11.7517 14.969 11.4217 14.839 11.1187V11.1037L12.193 5.20467C12.021 4.80867 11.726 4.47866 11.351 4.26466C10.977 4.04966 10.543 3.96266 10.115 4.01466C8.421 4.23766 6.86604 5.06966 5.74104 6.35466C4.61604 7.64066 3.99701 9.29166 4.00001 10.9997C4.00001 20.9247 12.075 28.9997 22 28.9997C23.708 29.0027 25.359 28.3837 26.645 27.2587C27.93 26.1337 28.762 24.5787 28.985 22.8847C29.037 22.4567 28.95 22.0227 28.736 21.6487C28.521 21.2737 28.192 20.9787 27.796 20.8067ZM22 26.9997C17.758 26.9947 13.691 25.3077 10.691 22.3087C7.69199 19.3087 6.00501 15.2417 6.00001 10.9997C5.99501 9.77866 6.43501 8.59866 7.23701 7.67866C8.03901 6.75866 9.14902 6.16166 10.359 5.99966C10.358 6.00466 10.358 6.00966 10.359 6.01466L12.984 11.8897L10.4 14.9817C10.374 15.0127 10.35 15.0447 10.329 15.0787C10.141 15.3667 10.03 15.6997 10.008 16.0437C9.98701 16.3867 10.054 16.7307 10.204 17.0407C11.336 19.3567 13.67 21.6737 16.011 22.8047C16.324 22.9537 16.669 23.0187 17.014 22.9937C17.36 22.9687 17.692 22.8547 17.98 22.6617C18.012 22.6407 18.043 22.6177 18.073 22.5917L21.111 19.9997L26.986 22.6307C26.986 22.6307 26.996 22.6307 27 22.6307C26.84 23.8427 26.244 24.9547 25.324 25.7587C24.404 26.5627 23.222 27.0037 22 26.9997Z" fill="black"/>
</svg>
