<svg width="32" height="32" viewBox="0 0 32 32" fill="none" xmlns="http://www.w3.org/2000/svg">
<rect width="32" height="32" fill="white"/>
<path d="M28 13C28 13.265 27.895 13.52 27.707 13.707C27.52 13.895 27.265 14 27 14C26.735 14 26.48 13.895 26.293 13.707C26.105 13.52 26 13.265 26 13V7.41499L17.709 15.708C17.521 15.895 17.267 16.001 17.001 16.001C16.736 16.001 16.481 15.895 16.294 15.708C16.106 15.52 16.001 15.265 16.001 15C16.001 14.735 16.106 14.48 16.294 14.292L24.585 6H19C18.735 6 18.48 5.895 18.293 5.707C18.105 5.52 18 5.265 18 5C18 4.735 18.105 4.48 18.293 4.293C18.48 4.105 18.735 4 19 4H27C27.265 4 27.52 4.105 27.707 4.293C27.895 4.48 28 4.735 28 5V13ZM23 16C22.735 16 22.48 16.105 22.293 16.293C22.105 16.48 22 16.735 22 17V26H6V10H15C15.265 10 15.52 9.895 15.707 9.707C15.895 9.52 16 9.265 16 9C16 8.735 15.895 8.48 15.707 8.293C15.52 8.105 15.265 8 15 8H6C5.47 8 4.961 8.211 4.586 8.586C4.211 8.961 4 9.47 4 10V26C4 26.53 4.211 27.039 4.586 27.414C4.961 27.789 5.47 28 6 28H22C22.53 28 23.039 27.789 23.414 27.414C23.789 27.039 24 26.53 24 26V17C24 16.735 23.895 16.48 23.707 16.293C23.52 16.105 23.265 16 23 16Z" fill="black"/>
</svg>
