<svg width="32" height="32" viewBox="0 0 32 32" fill="none" xmlns="http://www.w3.org/2000/svg">
<rect width="32" height="32" fill="white"/>
<path d="M28.7348 27.3208L22.4768 21.0628C24.2908 18.8848 25.1948 16.0918 25.0018 13.2638C24.8088 10.4358 23.5328 7.79181 21.4398 5.87981C19.3468 3.96881 16.5978 2.93881 13.7638 3.00281C10.9298 3.06781 8.22981 4.22181 6.22581 6.22581C4.22181 8.22981 3.06781 10.9298 3.00281 13.7638C2.93881 16.5978 3.9688 19.3468 5.8798 21.4398C7.7918 23.5328 10.4358 24.8088 13.2638 25.0018C16.0918 25.1948 18.8848 24.2908 21.0628 22.4768L27.3198 28.7358C27.4128 28.8278 27.5238 28.9018 27.6448 28.9518C27.7658 29.0028 27.8968 29.0288 28.0278 29.0288C28.1588 29.0288 28.2888 29.0028 28.4108 28.9518C28.5318 28.9018 28.6428 28.8278 28.7348 28.7358C28.8278 28.6428 28.9018 28.5318 28.9518 28.4108C29.0028 28.2898 29.0288 28.1588 29.0288 28.0278C29.0288 27.8968 29.0028 27.7668 28.9518 27.6448C28.9018 27.5238 28.8278 27.4128 28.7348 27.3208ZM5.02781 14.0278C5.02781 12.2478 5.55581 10.5078 6.54481 9.02781C7.53381 7.54781 8.93881 6.3938 10.5838 5.7128C12.2278 5.0318 14.0378 4.85381 15.7838 5.20081C17.5298 5.54781 19.1328 6.40481 20.3918 7.66381C21.6508 8.92281 22.5078 10.5258 22.8548 12.2718C23.2018 14.0178 23.0238 15.8278 22.3428 17.4718C21.6618 19.1168 20.5078 20.5218 19.0278 21.5108C17.5478 22.4998 15.8078 23.0278 14.0278 23.0278C11.6418 23.0248 9.35381 22.0758 7.66681 20.3888C5.97981 18.7018 5.03081 16.4138 5.02781 14.0278Z" fill="black"/>
</svg>
