<svg width="32" height="32" viewBox="0 0 32 32" fill="none" xmlns="http://www.w3.org/2000/svg">
<rect width="32" height="32" fill="white"/>
<path d="M23.004 20.0038C22.337 20.0038 21.677 20.1368 21.062 20.3968C20.448 20.6568 19.891 21.0368 19.426 21.5148L13.664 17.8118C14.117 16.6488 14.117 15.3588 13.664 14.1968L19.426 10.4928C20.292 11.3788 21.456 11.9128 22.693 11.9898C23.929 12.0678 25.151 11.6828 26.12 10.9108C27.089 10.1388 27.737 9.03381 27.938 7.81081C28.139 6.58881 27.879 5.33481 27.208 4.29281C26.537 3.25081 25.504 2.49581 24.307 2.17281C23.111 1.84981 21.838 1.98281 20.734 2.54481C19.63 3.10781 18.774 4.06081 18.333 5.21781C17.891 6.37581 17.895 7.65681 18.344 8.81081L12.581 12.5148C11.888 11.8028 10.997 11.3138 10.024 11.1098C9.05 10.9058 8.038 10.9978 7.117 11.3718C6.195 11.7468 5.40701 12.3868 4.85201 13.2118C4.29601 14.0378 4 15.0088 4 16.0038C4 16.9988 4.29601 17.9698 4.85201 18.7948C5.40701 19.6208 6.195 20.2608 7.117 20.6358C8.038 21.0098 9.05 21.1018 10.024 20.8978C10.997 20.6938 11.888 20.2048 12.581 19.4928L18.344 23.1958C17.958 24.1918 17.901 25.2848 18.181 26.3158C18.461 27.3458 19.064 28.2598 19.901 28.9228C20.738 29.5858 21.765 29.9638 22.832 30.0008C23.9 30.0378 24.951 29.7318 25.832 29.1288C26.713 28.5248 27.377 27.6558 27.728 26.6468C28.079 25.6378 28.098 24.5438 27.782 23.5238C27.466 22.5038 26.831 21.6118 25.972 20.9788C25.112 20.3448 24.072 20.0038 23.004 20.0038ZM23.004 4.00381C23.597 4.00381 24.177 4.1798 24.671 4.5098C25.164 4.8388 25.549 5.30781 25.776 5.85581C26.003 6.40381 26.062 7.00681 25.946 7.58881C25.831 8.17081 25.545 8.70581 25.125 9.12481C24.706 9.54481 24.171 9.83081 23.589 9.94581C23.007 10.0618 22.404 10.0028 21.856 9.77581C21.308 9.54881 20.839 9.16382 20.51 8.67082C20.18 8.17682 20.004 7.59681 20.004 7.00381C20.004 6.20781 20.32 5.44481 20.883 4.88281C21.445 4.31981 22.208 4.00381 23.004 4.00381ZM9.004 19.0038C8.411 19.0038 7.83099 18.8278 7.33699 18.4978C6.84399 18.1688 6.45899 17.6998 6.23199 17.1518C6.00499 16.6038 5.946 16.0008 6.062 15.4188C6.177 14.8368 6.463 14.3018 6.883 13.8828C7.302 13.4628 7.83699 13.1768 8.41899 13.0618C9.00099 12.9458 9.60399 13.0048 10.152 13.2318C10.7 13.4588 11.169 13.8438 11.498 14.3368C11.828 14.8308 12.004 15.4108 12.004 16.0038C12.004 16.7998 11.688 17.5628 11.125 18.1248C10.563 18.6878 9.8 19.0038 9.004 19.0038ZM23.004 28.0038C22.411 28.0038 21.831 27.8278 21.337 27.4978C20.844 27.1688 20.459 26.6998 20.232 26.1518C20.005 25.6038 19.946 25.0008 20.062 24.4188C20.177 23.8368 20.463 23.3018 20.883 22.8828C21.302 22.4628 21.837 22.1768 22.419 22.0618C23.001 21.9458 23.604 22.0048 24.152 22.2318C24.7 22.4588 25.169 22.8438 25.498 23.3368C25.828 23.8308 26.004 24.4108 26.004 25.0038C26.004 25.7998 25.688 26.5628 25.125 27.1248C24.563 27.6878 23.8 28.0038 23.004 28.0038Z" fill="black"/>
</svg>
