<svg width="32" height="32" viewBox="0 0 32 32" fill="none" xmlns="http://www.w3.org/2000/svg">
<rect width="32" height="32" fill="white"/>
<path d="M29.906 13.161C29.785 12.788 29.557 12.459 29.25 12.214C28.943 11.97 28.571 11.821 28.18 11.786L20.756 11.146L17.8461 4.226C17.6941 3.863 17.439 3.55301 17.112 3.33501C16.784 3.11701 16.399 3 16.006 3C15.613 3 15.228 3.11701 14.9 3.33501C14.573 3.55301 14.317 3.863 14.166 4.226L11.265 11.146L3.83201 11.79C3.44001 11.823 3.066 11.971 2.757 12.216C2.449 12.46 2.21903 12.791 2.09703 13.165C1.97603 13.54 1.96802 13.942 2.07402 14.321C2.18002 14.701 2.39504 15.04 2.69304 15.298L8.33201 20.225L6.64201 27.542C6.55301 27.925 6.57805 28.326 6.71605 28.695C6.85305 29.063 7.09501 29.383 7.41301 29.614C7.73101 29.846 8.11103 29.978 8.50303 29.995C8.89603 30.012 9.28505 29.913 9.62205 29.71L15.9971 25.835L22.386 29.71C22.723 29.913 23.112 30.012 23.505 29.995C23.898 29.978 24.277 29.846 24.595 29.614C24.913 29.383 25.156 29.063 25.293 28.695C25.43 28.326 25.455 27.925 25.366 27.542L23.677 20.218L29.315 15.298C29.613 15.039 29.828 14.699 29.933 14.319C30.039 13.939 30.029 13.536 29.906 13.161ZM28.003 13.786L22.366 18.706C22.092 18.945 21.888 19.254 21.776 19.6C21.664 19.946 21.648 20.316 21.731 20.67L23.425 28L17.041 24.125C16.73 23.935 16.372 23.835 16.007 23.835C15.643 23.835 15.285 23.935 14.973 24.125L8.598 28L10.281 20.675C10.364 20.321 10.348 19.951 10.236 19.605C10.124 19.259 9.92004 18.95 9.64604 18.711L4.00602 13.794C4.00602 13.79 4.00602 13.786 4.00602 13.783L11.436 13.14C11.799 13.108 12.146 12.978 12.44 12.763C12.734 12.548 12.964 12.257 13.105 11.921L16.006 5.00999L18.906 11.921C19.047 12.257 19.277 12.548 19.571 12.763C19.865 12.978 20.212 13.108 20.575 13.14L28.006 13.783V13.791L28.003 13.786Z" fill="black"/>
</svg>
