<svg width="32" height="32" viewBox="0 0 32 32" fill="none" xmlns="http://www.w3.org/2000/svg">
<rect width="32" height="32" fill="white"/>
<path d="M28 19.001V26.001C28 26.531 27.789 27.04 27.414 27.415C27.039 27.79 26.53 28.001 26 28.001H6C5.47 28.001 4.961 27.79 4.586 27.415C4.211 27.04 4 26.531 4 26.001V19.001C4 18.736 4.105 18.481 4.293 18.294C4.48 18.106 4.735 18.001 5 18.001C5.265 18.001 5.52 18.106 5.707 18.294C5.895 18.481 6 18.736 6 19.001V26.001H26V19.001C26 18.736 26.105 18.481 26.293 18.294C26.48 18.106 26.735 18.001 27 18.001C27.265 18.001 27.52 18.106 27.707 18.294C27.895 18.481 28 18.736 28 19.001ZM11.708 10.709L15 7.41501V19.001C15 19.266 15.105 19.521 15.293 19.708C15.48 19.896 15.735 20.001 16 20.001C16.265 20.001 16.52 19.896 16.707 19.708C16.895 19.521 17 19.266 17 19.001V7.41501L20.292 10.709C20.48 10.896 20.735 11.002 21 11.002C21.265 11.002 21.52 10.896 21.708 10.709C21.895 10.521 22.001 10.266 22.001 10.001C22.001 9.73601 21.895 9.48101 21.708 9.29401L16.708 4.29401C16.615 4.20101 16.504 4.12702 16.383 4.07602C16.262 4.02602 16.131 4 16 4C15.869 4 15.738 4.02602 15.617 4.07602C15.496 4.12702 15.385 4.20101 15.292 4.29401L10.292 9.29401C10.105 9.48101 9.99899 9.73601 9.99899 10.001C9.99899 10.266 10.105 10.521 10.292 10.709C10.48 10.896 10.735 11.002 11 11.002C11.265 11.002 11.52 10.896 11.708 10.709Z" fill="black"/>
</svg>
