<svg width="32" height="32" viewBox="0 0 32 32" fill="none" xmlns="http://www.w3.org/2000/svg">
<rect width="32" height="32" fill="white"/>
<path d="M29.25 12.015C28.968 11.696 28.622 11.44 28.234 11.265C27.846 11.09 27.426 11 27 11H20V9C20 7.674 19.473 6.402 18.536 5.464C17.598 4.527 16.326 4 15 4C14.814 4 14.632 4.051 14.474 4.149C14.316 4.247 14.188 4.38599 14.105 4.55299L9.38199 14H4C3.47 14 2.961 14.211 2.586 14.586C2.211 14.961 2 15.47 2 16V27C2 27.53 2.211 28.039 2.586 28.414C2.961 28.789 3.47 29 4 29H25.5C26.231 29 26.937 28.734 27.485 28.25C28.033 27.767 28.386 27.1 28.478 26.375L29.978 14.375C30.031 13.953 29.993 13.524 29.868 13.117C29.742 12.71 29.532 12.334 29.25 12.015ZM4 16H9V27H4V16ZM27.993 14.125L26.493 26.125C26.462 26.367 26.344 26.589 26.162 26.75C25.979 26.911 25.744 27 25.5 27H11V15.236L15.589 6.058C16.269 6.194 16.881 6.56101 17.32 7.09801C17.76 7.63401 18 8.306 18 9V12C18 12.265 18.105 12.52 18.293 12.707C18.48 12.895 18.735 13 19 13H27C27.142 13 27.282 13.03 27.412 13.088C27.541 13.147 27.656 13.232 27.75 13.338C27.844 13.445 27.914 13.57 27.956 13.706C27.998 13.841 28.01 13.984 27.993 14.125Z" fill="black"/>
</svg>
