<svg width="32" height="32" viewBox="0 0 32 32" fill="none" xmlns="http://www.w3.org/2000/svg">
<rect width="32" height="32" fill="white"/>
<path d="M29.25 12.015C28.968 11.696 28.622 11.44 28.234 11.265C27.846 11.09 27.426 11 27 11H20V9C20 7.674 19.473 6.40199 18.536 5.46399C17.598 4.52699 16.326 4 15 4C14.814 4 14.632 4.05099 14.474 4.14899C14.316 4.24699 14.188 4.38601 14.105 4.55301L9.38199 14H4C3.47 14 2.961 14.211 2.586 14.586C2.211 14.961 2 15.47 2 16V27C2 27.53 2.211 28.039 2.586 28.414C2.961 28.789 3.47 29 4 29H25.5C26.231 29 26.937 28.734 27.485 28.25C28.033 27.767 28.386 27.1 28.478 26.375L29.978 14.375C30.031 13.953 29.993 13.524 29.868 13.117C29.742 12.71 29.532 12.334 29.25 12.015Z" fill="black"/>
</svg>
